<svg id="Layer_1" data-name="Layer 1" xmlns="http://www.w3.org/2000/svg" viewBox="0 0 48 48">
  <defs>
    <style>
      .cls-1 {
        stroke-width: 0px;
      }
    </style>
  </defs>
  <path class="cls-1" d="m47.628,31.482c-.775-.626-1.659-1.114-2.628-1.46v-1.552c0-.918-.258-1.825-.747-2.624-.484-.788-1.179-1.427-2.019-1.853-.849-.42-1.437-1.203-1.611-2.144l-.885-4.851h1.262c1.103,0,2-.897,2-2v-5c0-1.103-.897-2-2-2h-3.5c-.369,0-.722.057-1.065.141l-.261-.792c-.283-.807-1.044-1.349-1.894-1.349h-1.28v-1c0-.552-.447-1-1-1s-1,.448-1,1v4c0,.552.447,1,1,1s1-.448,1-1v-1.003l1.28-.004.352,1.069c-.867.724-1.449,1.758-1.581,2.939h-3.051c-.553,0-1,.448-1,1s.447,1,1,1h3.074l.759,9.821c.075,1.061-.391,2.062-1.243,2.675-1.251.891-2.861,2.041-3.951,2.82-.687.49-1.542.675-2.336.507-2.599-.566-4.725-2.403-5.705-4.823h.403c1.654,0,3-1.346,3-3s-1.346-3-3-3h-5.178c.112-.314.178-.648.178-1v-8c0-1.654-1.346-3-3-3H5c-1.654,0-3,1.346-3,3v8c0,.396.099.763.239,1.11-1.285.339-2.239,1.5-2.239,2.89,0,1.654,1.346,3,3,3h.149c-2.012,2.544-3.149,5.711-3.149,9,0,1.192.145,2.374.43,3.511.218.876,1.016,1.489,1.94,1.489h2.655c.254,2.799,2.611,5,5.475,5s5.221-2.201,5.475-5h18.045c.528,0,.965-.411.998-.938.23-3.68,3.298-6.562,6.982-6.562.767,0,1.525.126,2.254.375.785.271,1.498.662,2.118,1.162.428.347,1.059.279,1.406-.149.347-.43.279-1.06-.15-1.406Zm-6.628-21.482v5h-3.5c-1.379,0-2.5-1.122-2.5-2.5s1.121-2.5,2.5-2.5h3.5Zm-37,0c0-.551.448-1,1-1h8c.552,0,1,.449,1,1v8c0,.551-.448,1-1,1H5c-.552,0-1-.449-1-1v-8Zm-2,12c0-.551.448-1,1-1h18c.552,0,1,.449,1,1s-.448,1-1,1H3c-.552,0-1-.449-1-1Zm8.5,20c-1.758,0-3.204-1.308-3.449-3h6.899c-.245,1.692-1.691,3-3.449,3Zm22.63-4.999l-30.76.026c-.245-.98-.37-1.999-.37-3.027,0-3.4,1.4-6.653,3.835-9h12.657c1.069,3.389,3.876,6.013,7.392,6.778.331.07.667.104,1.002.104,1.03,0,2.055-.324,2.916-.939,1.089-.78,2.699-1.929,3.952-2.821,1.424-1.024,2.199-2.685,2.073-4.449l-.563-7.291c.661.383,1.418.618,2.236.618h.206l.95,5.212c.287,1.545,1.293,2.881,2.682,3.569.501.255.92.639,1.21,1.111.296.483.452,1.028.452,1.578v1.093c-.332-.037-.665-.063-1-.063-4.421,0-8.149,3.226-8.87,7.501Z" id="id_101"></path>
  <path class="cls-1" d="m42,33c-3.032,0-5.5,2.467-5.5,5.5s2.468,5.5,5.5,5.5,5.5-2.467,5.5-5.5-2.468-5.5-5.5-5.5Zm0,9c-1.93,0-3.5-1.57-3.5-3.5s1.57-3.5,3.5-3.5,3.5,1.57,3.5,3.5-1.57,3.5-3.5,3.5Z" id="id_102"></path>
  <circle class="cls-1" cx="42" cy="38.5" r="1" id="id_103"></circle>
  <path class="cls-1" d="m13.778,26.403c-.5-.233-1.096-.017-1.329.483-.233.5-.017,1.096.483,1.329,1.161.542,2.187,1.365,2.967,2.381.778,1.015,1.309,2.219,1.532,3.481.085.485.507.826.983.826.058,0,.116-.005.175-.015.544-.096.907-.615.811-1.159-.278-1.578-.94-3.082-1.915-4.351-.974-1.27-2.256-2.299-3.707-2.976Z" id="id_104"></path>
</svg>